<svg width="1027" height="331" viewBox="0 0 1027 331" fill="none" xmlns="http://www.w3.org/2000/svg">
<path d="M0.732422 116.465V0.486328H49.7741L89.5449 71.5697L129.462 0.486328H178.337V116.465H139.566V53.8405L102.628 116.465H76.6074L39.6699 53.8405V116.465H0.732422Z" fill="white"/>
<path d="M182.471 116.465L234.325 0.486328H290.825L342.533 116.465H299.783L290.346 94.4238H234.825L225.221 116.465H182.471ZM245.762 66.9238H279.242L262.512 28.153L245.762 66.9238Z" fill="white"/>
<path d="M346.667 116.465V0.486328H437.792C446.625 0.486328 454.355 2.34049 460.98 6.04883C467.605 9.74675 472.792 14.877 476.542 21.4447C480.302 28.0176 482.188 35.6061 482.188 44.2155C482.188 52.9551 480.23 60.6634 476.313 67.3405C472.396 74.0228 467.011 79.1322 460.167 82.6738L481.042 116.465H435.146L418.063 88.1322H385.604V116.465H346.667ZM385.604 55.3197H429.5C431.485 55.3197 433.552 55.1634 435.709 54.8405C437.875 54.5072 439.698 53.5697 441.188 52.028C442.672 50.4759 443.417 47.8717 443.417 44.2155C443.417 40.5801 442.672 37.9863 441.188 36.4447C439.698 34.8926 437.875 33.9811 435.709 33.7155C433.552 33.4395 431.485 33.2988 429.5 33.2988H385.604V55.3197Z" fill="white"/>
<path d="M486.333 116.465V0.486328H525.271V116.465H486.333Z" fill="white"/>
<path d="M581.088 116.465V33.2988H529.233V0.486328H671.733V33.2988H620.025V116.465H581.088Z" fill="white"/>
<path d="M675.868 116.465V0.486328H714.806V116.465H675.868Z" fill="white"/>
<path d="M720.436 116.465V0.486328H769.477L809.248 71.5697L849.165 0.486328H898.04V116.465H859.269V53.8405L822.331 116.465H796.311L759.373 53.8405V116.465H720.436Z" fill="white"/>
<path d="M903.84 116.465V0.486328H1026.44V30.6322H942.777V45.3822H1026.44V71.5697H942.777V86.3197H1026.44V116.465H903.84Z" fill="white"/>
<path d="M141.732 329.608C116.217 329.608 94.6751 328.087 77.1074 325.046C59.5501 322.014 45.3835 316.993 34.6074 309.983C23.8418 302.967 16.0553 293.525 11.2533 281.65C6.44596 269.775 4.04492 255.061 4.04492 237.504C4.04492 218.061 8.01367 201.66 15.9616 188.296C23.9199 174.921 35.2949 164.811 50.0866 157.962C64.8887 151.118 82.6283 147.691 103.295 147.691C123.613 147.691 139.93 150.098 152.253 154.9C164.571 159.707 173.514 167.139 179.087 177.191C184.67 187.233 187.462 200.16 187.462 215.962V282.733H151.337V271.296C142.837 279.796 129.8 284.155 112.232 284.379C105.493 284.488 99.0553 283.879 92.9199 282.546C86.7949 281.228 81.3262 278.915 76.5241 275.608C71.7168 272.29 67.9303 267.624 65.1699 261.608C62.4199 255.582 61.0449 247.931 61.0449 238.65C61.0449 229.374 62.4199 221.754 65.1699 215.796C67.9303 209.827 71.7168 205.212 76.5241 201.962C81.3262 198.702 86.7949 196.41 92.9199 195.087C99.0553 193.754 105.493 193.035 112.232 192.921C120.842 192.702 128.404 193.665 134.92 195.816C141.446 197.973 146.805 201.15 151.003 205.358C150.555 199.165 148.868 194.249 145.941 190.608C143.024 186.957 139.326 184.223 134.857 182.4C130.383 180.582 125.55 179.374 120.357 178.775C115.16 178.165 110.024 177.858 104.941 177.858C91.5762 177.858 80.0345 179.9 70.3158 183.983C60.5918 188.066 53.1335 194.478 47.9408 203.212C42.7585 211.936 40.1699 223.368 40.1699 237.504C40.1699 251.421 42.1543 262.525 46.1283 270.816C50.097 279.098 56.2793 285.301 64.6699 289.441C73.071 293.577 83.7845 296.28 96.8158 297.546C109.857 298.822 125.378 299.462 143.378 299.462L141.732 329.608ZM124.337 254.4C132.055 254.4 138.347 253.546 143.212 251.837C148.071 250.118 150.722 246.441 151.17 240.816V236.504C150.722 230.868 148.071 227.223 143.212 225.566C138.347 223.915 132.055 223.087 124.337 223.087C118.92 223.087 114.16 223.478 110.066 224.254C105.982 225.02 102.805 226.504 100.545 228.712C98.2793 230.921 97.1491 234.233 97.1491 238.65C97.1491 243.066 98.2793 246.41 100.545 248.671C102.805 250.936 105.982 252.457 110.066 253.233C114.16 254.014 118.92 254.4 124.337 254.4Z" fill="white"/>
<path d="M196.563 281.901V165.922H287.688C296.522 165.922 304.251 167.776 310.876 171.484C317.501 175.182 322.688 180.313 326.438 186.88C330.199 193.453 332.084 201.042 332.084 209.651C332.084 218.276 330.199 225.875 326.438 232.443C322.688 239.016 317.501 244.182 310.876 247.943C304.251 251.693 296.522 253.568 287.688 253.568H235.501V281.901H196.563ZM235.501 220.755H279.397C281.381 220.755 283.449 220.599 285.605 220.276C287.772 219.943 289.595 219.005 291.084 217.464C292.569 215.911 293.313 213.307 293.313 209.651C293.313 206.016 292.569 203.422 291.084 201.88C289.595 200.328 287.772 199.417 285.605 199.151C283.449 198.875 281.381 198.734 279.397 198.734H235.501V220.755Z" fill="white"/>
<path d="M336.229 281.901V165.922H458.834V196.068H375.167V210.818H458.834V237.005H375.167V251.755H458.834V281.901H336.229Z" fill="white"/>
<path d="M462.973 281.901V165.922H514.327L573.639 239.484V165.922H612.41V281.901H561.223L501.91 208.339V281.901H462.973Z" fill="white"/>
<path d="M618.213 281.901V165.922H669.567L728.88 239.484V165.922H767.65V281.901H716.463L657.15 208.339V281.901H618.213Z" fill="white"/>
<mask id="mask0_2030_761" style="mask-type:luminance" maskUnits="userSpaceOnUse" x="842" y="149" width="157" height="182">
<path d="M842.667 149.865H998.667V330.751H842.667V149.865Z" fill="white"/>
</mask>
<g mask="url(#mask0_2030_761)">
<path d="M992.527 238.251C992.527 238.251 978.152 245.876 969.855 262.568L982.657 261.037C972.297 283.912 959.214 291.271 948.422 291.271C936.735 291.271 927.709 282.62 927.709 275.699L925.506 208.61H938.24C939.704 211.428 942.652 213.37 946.063 213.37C950.933 213.37 954.886 209.417 954.886 204.542C954.886 199.673 950.933 195.719 946.063 195.719C942.652 195.719 939.704 197.641 938.24 200.48H925.245L924.938 191.063C934.245 188.969 941.235 180.646 941.235 170.704C941.235 159.214 931.886 149.865 920.391 149.865C908.902 149.865 899.553 159.214 899.553 170.704C899.553 180.646 906.542 188.969 915.87 191.042L915.563 200.459H902.568C901.105 197.641 898.152 195.699 894.745 195.699C889.876 195.699 885.922 199.652 885.922 204.521C885.922 209.396 889.876 213.35 894.745 213.35C898.152 213.35 901.105 211.428 902.568 208.584H915.282L913.073 275.699C913.073 282.62 904.053 291.271 892.365 291.271C881.573 291.271 868.511 283.912 858.131 261.037L870.933 262.568C862.631 245.896 848.235 238.251 848.235 238.251C848.235 238.251 840.808 252.735 843.516 271.173L853.349 262.438C855.053 279.803 862.391 298.199 893.959 312.115C907.48 318.079 913.292 319.693 920.391 330.751C927.516 319.693 933.323 318.079 946.829 312.115C978.396 298.199 985.735 279.782 987.438 262.438L997.271 271.173C999.98 252.735 992.527 238.251 992.527 238.251ZM908.485 170.704C908.485 164.131 913.818 158.798 920.391 158.798C926.948 158.798 932.297 164.131 932.297 170.704C932.297 177.256 926.969 182.61 920.391 182.61C913.839 182.61 908.485 177.282 908.485 170.704Z" fill="white"/>
</g>
</svg>
