<svg width="72" height="83" viewBox="0 0 72 83" fill="none" xmlns="http://www.w3.org/2000/svg">
<path d="M29.1543 69.9111C29.3543 72.0111 29.7543 75.2111 30.0543 76.5111C43.0543 79.9111 51.9543 78.2111 54.0543 76.8111C55.5543 75.7111 56.6543 75.2111 54.5543 70.9111C49.7543 72.8111 39.9543 72.7111 29.1543 69.9111Z" fill="white"/>
<path d="M23.8545 75.8111C22.3545 75.3111 20.8545 76.1111 20.3545 77.6111C19.9545 78.7111 20.3545 79.9111 21.2545 80.6111L20.6545 81.9111C20.6545 81.9111 21.0545 82.3111 21.7545 82.5111C22.4545 82.7111 22.8545 82.6111 22.8545 82.6111L23.0545 81.2111C24.2545 81.2111 25.2545 80.5111 25.6545 79.3111C26.1545 77.9111 25.3545 76.3111 23.8545 75.8111ZM70.9545 16.9111C71.6545 14.5111 70.0545 14.1111 69.5545 14.0111L53.7545 9.61111C52.5545 9.31111 52.9545 6.51111 51.8545 6.21111C51.8545 6.21111 40.5545 3.01111 39.4545 2.71111C38.3545 2.41111 37.2545 5.01111 36.0545 4.61111L20.1545 0.111111C19.6545 0.0111111 18.0545 -0.488889 17.4545 1.91111L13.8545 14.8111C13.7545 15.0111 13.6545 15.0111 13.4545 15.0111L12.3545 14.7111C11.9545 14.6111 11.6545 14.7111 11.3545 15.3111C11.0545 15.9111 10.6545 16.8111 10.2545 18.2111C9.75449 19.8111 9.65449 21.2111 9.55449 21.7111C9.55449 22.2111 9.55448 22.5111 10.1545 22.7111L20.2545 25.5111C20.8545 25.7111 21.6545 25.7111 22.1545 24.6111C23.2545 22.3111 25.9545 17.9111 26.8545 17.4111C28.0545 16.7111 35.2545 17.9111 35.2545 17.9111C35.2545 17.9111 35.0545 18.3111 34.7545 19.4111C34.4545 20.5111 35.1545 23.3111 34.4545 23.7111C30.9545 25.7111 24.5545 22.7111 22.4545 28.6111C17.2545 43.7111 13.3545 50.1111 7.45448 54.0111C10.2545 57.3111 16.7545 60.7111 26.2545 63.6111C26.1545 63.3111 26.1545 63.0111 26.1545 62.7111C26.1545 62.2111 26.1545 61.5111 25.9545 59.3111C25.7545 57.2111 25.5545 56.2111 25.5545 55.2111C25.5545 54.1111 25.6545 53.2111 26.1545 51.4111C26.2545 51.2111 26.2545 50.9111 26.3545 50.7111C27.0545 48.3111 29.3545 41.6111 30.2545 39.7111C30.4545 39.4111 30.6545 39.4111 30.6545 39.4111C30.7545 39.4111 30.9545 39.5111 30.8545 39.8111C30.6545 41.9111 28.9545 48.7111 28.2545 51.2111C28.1545 51.4111 28.1545 51.7111 28.0545 51.9111C27.5545 53.6111 27.6545 54.4111 27.6545 55.3111C27.6545 56.2111 27.9545 57.3111 28.1545 59.4111C28.3545 61.6111 28.3545 62.5111 28.3545 63.0111C28.3545 63.4111 28.3545 63.6111 28.6545 64.3111C28.7545 64.3111 28.7545 64.3111 28.8545 64.3111C39.6545 67.3111 47.9545 68.0111 52.3545 66.5111C49.3545 60.1111 49.3545 52.5111 52.5545 36.9111C53.8545 30.7111 46.8545 30.1111 44.8545 26.5111C44.4545 25.9111 46.4545 23.8111 46.8545 22.7111C47.1545 21.6111 47.2545 21.1111 47.2545 21.1111C47.2545 21.1111 54.2545 23.9111 54.9545 25.1111C55.4545 26.0111 55.5545 31.2111 55.2545 33.7111C55.1545 34.9111 55.8545 35.3111 56.4545 35.5111L66.5545 38.3111C67.1545 38.5111 67.3545 38.2111 67.5545 37.7111C67.7545 37.2111 68.3545 36.0111 68.8545 34.4111C69.2545 33.0111 69.3545 32.0111 69.3545 31.3111C69.3545 30.7111 69.1545 30.4111 68.7545 30.3111L67.5545 30.1111C67.3545 30.1111 67.2545 29.9111 67.3545 29.7111M3.25448 56.6111C-0.845515 59.4111 -0.345515 60.8111 0.854485 62.3111C3.65448 65.9111 11.1545 71.3111 24.8545 75.1111C24.8545 75.1111 27.5545 75.8111 27.9545 75.9111C27.7545 74.8111 27.2545 71.3111 27.0545 69.3111C15.5545 66.1111 6.45448 60.9111 3.25448 56.6111Z" fill="white"/>
</svg>
