<svg width="31" height="35" viewBox="0 0 31 35" fill="none" xmlns="http://www.w3.org/2000/svg">
<path d="M0.123101 0.125977H30.8165C30.8165 0.125977 30.8165 15.3585 30.8165 15.6393C30.6019 28.267 16.5921 34.9049 14.8403 34.8429C12.9965 34.781 0.0924452 28.2958 0.123101 15.5774C0.123101 15.3275 0.123101 0.125977 0.123101 0.125977Z" fill="white"/>
<path d="M0.123047 9.52549C0.153703 9.55645 0.123047 0.125977 0.123047 0.125977H30.7858C30.7858 0.125977 30.7858 5.21379 30.7858 9.52549" fill="black"/>
<path d="M0.123219 9.52589L0.0619062 9.5878L0.123219 9.61875C0.153875 9.61875 0.153875 9.5878 0.184531 9.5878V9.55684V9.52589C0.184531 9.34015 0.215187 8.3164 0.215187 7.01183C0.215187 4.21917 0.184531 0.124155 0.184531 0.124155H0.123219V0.186066H30.786V0.124155H30.7247C30.7247 0.124155 30.7247 5.21197 30.7247 9.52368H30.786V9.46176H0.0925624V9.61654V9.52368L0.03125 9.58559L0.123219 9.52589V9.46398V9.61875H30.878V9.55684C30.878 7.38551 30.878 5.02623 30.878 3.22859C30.878 2.32865 30.878 1.55255 30.878 0.995341C30.878 0.435925 30.878 0.126368 30.878 0.126368V0.0644531H0.0619062V0.126368C0.0619062 0.126368 0.0619062 0.374014 0.0619062 0.809607C0.0619062 2.08101 0.0925624 4.90462 0.0925624 7.01404C0.0925624 7.72824 0.0925624 8.37831 0.0925624 8.8139C0.0925624 9.03059 0.0925624 9.21633 0.0925624 9.34236C0.0925624 9.40427 0.0925624 9.46618 0.0925624 9.49714V9.5281L0.123219 9.52589L0.0925624 9.46398V9.49493L0.123219 9.52589V9.46398L0.0925624 9.49493L0.123219 9.52589L0.184531 9.46398L0.123219 9.43302V9.52589L0.184531 9.46398L0.153875 9.43302H0.123219V9.52589Z" fill="black"/>
<path d="M1.84375 23.3009C3.01088 25.815 4.48675 27.8315 6.5451 29.5363L15.4858 20.4154L24.0892 29.3196C25.8717 27.6745 27.5928 25.6889 28.8212 23.3628L15.4858 10.3945L1.93572 23.3319" fill="black"/>
<path d="M1.84452 23.3007L1.7832 23.3317C2.98099 25.8457 4.42621 27.8623 6.48455 29.598L6.54586 29.629L15.4865 20.508L24.09 29.4123L24.1513 29.3813C25.9337 27.7362 27.6549 25.7506 28.914 23.3936L28.9446 23.3317L15.5172 10.2705L1.96714 23.2078H1.93648L1.7832 23.1459L1.87517 23.3007H1.84452L1.81386 23.3626L1.87517 23.3936L1.90583 23.4245L15.4252 10.5182L28.73 23.4245L28.7913 23.3626L28.73 23.3317C27.5016 25.6578 25.7804 27.6434 23.998 29.2884L24.0593 29.3504L24.1206 29.2884L15.4865 20.3223L6.51521 29.5051L6.57652 29.5671L6.60718 29.5051C4.57949 27.7981 3.10361 25.7816 1.93648 23.3007H1.84452Z" fill="black"/>
<path d="M0.123047 9.68017L30.7858 9.64921V9.52539H0.123047" fill="black"/>
<path d="M23.1038 2.45258H23.9337C24.549 2.2978 24.7636 1.95508 25.4096 1.95508C25.8694 1.95508 26.0862 2.26464 26.3928 2.26464C26.6687 2.26464 27.1 1.95508 27.5599 1.95508C28.0526 1.95508 28.2672 2.23368 28.6044 2.38846C28.8803 2.51228 29.2504 2.51228 29.6489 2.51228C29.6489 2.79089 29.6489 2.97662 29.6489 3.19552C29.6489 3.44317 29.9554 3.3503 29.9554 3.72398C29.9554 4.12641 29.5263 4.0645 29.5263 4.21928V5.77149C29.5569 5.95723 29.9248 5.98818 29.9248 6.269C29.9248 6.70238 29.4956 6.5476 29.5263 6.89033C29.5569 7.13797 29.5263 7.66643 29.5263 7.66643C28.6963 7.66643 23.4125 7.72834 23.1366 7.69739C23.1673 7.13797 23.2286 7.16893 23.2593 6.89033C23.2899 6.67363 22.7666 6.51885 22.7666 6.14517C22.7666 5.89752 23.0731 5.89753 23.0731 5.64988V4.12862C23.0731 3.91193 22.6133 3.81906 22.6133 3.53825C22.6439 3.19773 23.0425 3.22869 23.0425 3.00979C23.1038 2.91913 23.1038 2.54545 23.1038 2.45258Z" fill="white"/>
<path d="M23.1044 2.4519V2.51381H23.9343C24.2408 2.4519 24.4576 2.29712 24.6722 2.20426C24.8868 2.11139 25.0708 2.01852 25.3795 2.01852C25.5941 2.01852 25.7474 2.08043 25.9028 2.1733C26.0561 2.23521 26.2094 2.32808 26.3955 2.32808C26.5488 2.32808 26.7328 2.23521 26.9495 2.1733C27.1641 2.08043 27.3787 2.01852 27.5955 2.01852C27.8101 2.01852 27.994 2.08043 28.1495 2.1733C28.3028 2.26617 28.4561 2.35904 28.6094 2.4519C28.8853 2.57573 29.2247 2.57573 29.5619 2.57573C29.5925 2.57573 29.6232 2.57573 29.6845 2.57573V2.51381H29.6232C29.6232 2.60668 29.6232 2.69955 29.6232 2.76146C29.6232 2.91624 29.6232 3.04006 29.6232 3.19484C29.6232 3.25675 29.6539 3.34962 29.6845 3.38058C29.7458 3.44249 29.8071 3.47345 29.8684 3.5044C29.8991 3.53536 29.9604 3.59727 29.9604 3.72109C29.9604 3.81396 29.9298 3.87587 29.8991 3.90683C29.8684 3.96874 29.7765 3.99969 29.7152 4.03065C29.6845 4.06161 29.6539 4.06161 29.5925 4.09256C29.5619 4.12352 29.5312 4.15448 29.5312 4.21639V5.7686C29.5312 5.83051 29.5925 5.89242 29.6232 5.92338C29.6845 5.98529 29.7765 6.01625 29.8378 6.07816C29.8991 6.14007 29.9298 6.17103 29.9298 6.26389C29.9298 6.35676 29.8991 6.41867 29.8684 6.44963C29.8378 6.51154 29.7458 6.5425 29.6845 6.57345C29.6539 6.60441 29.5925 6.63536 29.5619 6.66632C29.5312 6.69727 29.5006 6.75919 29.5006 6.85206V6.88301C29.5006 6.97588 29.5006 7.06874 29.5006 7.19257C29.5006 7.40926 29.5006 7.65691 29.5006 7.65691H29.5619V7.595C28.8239 7.595 24.37 7.62595 23.3562 7.62595C23.2642 7.62595 23.1723 7.62595 23.1723 7.62595V7.68786H23.2336C23.2336 7.40926 23.2642 7.28544 23.2949 7.19036C23.3255 7.09749 23.3562 7.03558 23.3562 6.8808C23.3562 6.78793 23.3255 6.72602 23.2642 6.69506C23.2029 6.6022 23.0803 6.54029 23.019 6.44742C22.927 6.35455 22.8964 6.26168 22.8964 6.16881C22.8964 6.1069 22.8964 6.07595 22.927 6.04499C22.9577 6.01403 23.019 5.95212 23.0803 5.92117C23.1416 5.85926 23.2029 5.79735 23.2029 5.67352V4.12131C23.2029 4.0594 23.1416 3.99748 23.1109 3.93557C23.0496 3.87366 22.9577 3.81175 22.8657 3.74984C22.8044 3.68793 22.7431 3.62601 22.7431 3.5641C22.7431 3.50219 22.7737 3.44028 22.8044 3.40932C22.8657 3.34741 22.927 3.31646 22.9883 3.25454C23.019 3.22359 23.0496 3.19263 23.0803 3.16168C23.1109 3.13072 23.1416 3.06881 23.1416 3.0069C23.1416 2.91403 23.1416 2.66638 23.1416 2.5116C23.1416 2.48065 23.1416 2.44969 23.1416 2.41874L23.1044 2.4519H23.0431C23.0431 2.48286 23.0431 2.48286 23.0431 2.54477C23.0431 2.69955 23.0431 2.9472 23.0431 3.04227C23.0431 3.07323 23.0431 3.10419 23.0124 3.13514C22.9817 3.1661 22.8898 3.19706 22.7978 3.25897C22.7058 3.32088 22.6445 3.41375 22.6445 3.56852V3.59948C22.6445 3.69235 22.6752 3.75426 22.7365 3.81617C22.7978 3.90904 22.8898 3.97095 22.9817 4.03286C23.0124 4.06382 23.0431 4.09477 23.0737 4.12573L23.1044 4.18764V5.7089C23.1044 5.73986 23.0737 5.77081 23.0737 5.80177C23.0431 5.83272 22.9818 5.89464 22.9204 5.92559C22.8591 5.9875 22.7978 6.04941 22.7978 6.17324C22.7978 6.38993 22.9511 6.54471 23.0737 6.63758C23.135 6.69949 23.1963 6.73044 23.227 6.79235C23.2577 6.82331 23.2883 6.88522 23.2883 6.88522C23.2883 7.00904 23.2577 7.07095 23.227 7.16382C23.1963 7.25669 23.1657 7.41147 23.1657 7.69228V7.7542H23.227C23.2577 7.7542 23.319 7.7542 23.4109 7.7542C24.4248 7.7542 28.8502 7.72324 29.6166 7.72324H29.6779V7.66133C29.6779 7.66133 29.6779 7.41368 29.6779 7.19699C29.6779 7.07317 29.6779 6.94934 29.6779 6.88743V6.85648C29.6779 6.79456 29.7086 6.76361 29.7086 6.73265C29.7393 6.7017 29.8312 6.67074 29.9232 6.60883C30.0152 6.54692 30.0765 6.4231 30.0765 6.26832C30.0765 6.17545 30.0458 6.11354 30.0152 6.05162C29.9538 5.95876 29.8619 5.9278 29.8006 5.86589C29.7699 5.83493 29.7393 5.83493 29.7086 5.80398L29.6779 5.74207V4.18985C29.6779 4.18985 29.7086 4.1589 29.7393 4.1589C29.8006 4.12794 29.8925 4.09698 29.9538 4.03507C30.0152 3.97316 30.0765 3.84934 30.0765 3.72552C30.0765 3.63265 30.0458 3.53978 30.0152 3.47787C29.9538 3.385 29.8619 3.35404 29.8312 3.29213L29.7699 3.23022C29.7699 3.19927 29.7393 3.19927 29.7393 3.16831C29.7393 3.01353 29.7393 2.88971 29.7393 2.73493C29.7393 2.67302 29.7393 2.58015 29.7393 2.48728V2.42537H29.6779C29.6473 2.42537 29.6166 2.42537 29.5553 2.42537C29.2181 2.42537 28.8787 2.42537 28.6641 2.30155C28.5108 2.23964 28.3882 2.14677 28.2043 2.0539C28.051 1.96103 27.8364 1.86816 27.5889 1.86816C27.3415 1.86816 27.0963 1.96103 26.9123 2.02294C26.6977 2.11581 26.5444 2.17772 26.4196 2.17772C26.2663 2.17772 26.1437 2.11581 25.9904 2.02294C25.8372 1.96103 25.6532 1.86816 25.4058 1.86816C25.0686 1.86816 24.8518 1.96103 24.6372 2.08485C24.4226 2.20868 24.2387 2.30155 23.9299 2.39441L23.9606 2.45633V2.39441H23.0693V2.45633L23.1044 2.4519Z" fill="black"/>
<path d="M23.7188 2.4831C23.7188 2.4831 23.7188 2.85458 23.7188 3.41399C23.7188 3.94245 23.7188 4.65444 23.7188 5.27576C23.7188 5.89709 23.7188 6.4543 23.7188 6.7329V6.79481H23.7801C23.7801 6.79481 25.0085 6.79481 26.2698 6.79481C26.9158 6.79481 27.5595 6.79481 28.0522 6.79481C28.5449 6.79481 28.9128 6.79481 28.9741 6.79481H29.0354V6.70194C29.0354 5.80201 29.0354 2.45215 29.0354 2.45215H28.8821C28.8821 2.45215 28.8821 3.29017 28.8821 4.25201C28.8821 5.21385 28.8821 6.26856 28.8821 6.7329H28.9434V6.67099C28.9128 6.67099 28.5449 6.67099 28.0522 6.67099C27.5595 6.67099 26.9158 6.67099 26.2698 6.67099C25.6545 6.67099 25.0107 6.67099 24.5487 6.67099C24.0888 6.67099 23.7801 6.67099 23.7801 6.67099V6.7329H23.8414C23.8414 6.4543 23.8414 5.89488 23.8414 5.27576C23.8414 4.03532 23.8414 2.4831 23.8414 2.4831H23.7188Z" fill="black"/>
<path d="M26.3008 2.2666V6.73309H26.4541V2.2666" fill="black"/>
<path d="M26.4551 6.17533C26.6697 6.17533 27.0704 6.33011 27.4689 6.45393C27.9616 6.60871 28.5134 6.48489 28.912 6.57776C29.0346 6.60871 26.4857 6.60871 26.4857 6.60871C26.4551 6.11342 26.4551 6.17533 26.4551 6.17533Z" fill="black"/>
<path d="M26.4539 6.17597V6.23788C26.6378 6.23788 27.0692 6.39266 27.4371 6.51648C27.9604 6.67126 28.5122 6.5784 28.8801 6.64031V6.5784L28.8495 6.64031V6.5784L28.8188 6.64031H28.8495L28.8801 6.5784H28.8188C28.8188 6.60935 28.8495 6.64031 28.8495 6.64031L28.8801 6.5784L28.8188 6.54744V6.5784H28.8801L28.8495 6.51648L28.8188 6.54744L28.8801 6.5784L28.8495 6.51648L28.8801 6.54744V6.48553L28.9108 6.51648V6.45457C28.9108 6.45457 28.8495 6.45457 28.7881 6.45457C28.5122 6.45457 27.9582 6.48553 27.4371 6.48553C26.9159 6.48553 26.4845 6.48553 26.4845 6.48553V6.54744H26.5459C26.5459 6.39266 26.5459 6.26884 26.5459 6.20693C26.5459 6.14502 26.5459 6.11406 26.5459 6.11406V6.0831V6.05215V6.02119C26.5459 6.02119 26.5152 5.99023 26.4845 5.99023L26.4539 6.02119L26.4232 6.05215V6.11406H26.4845L26.4539 6.17597L26.4845 6.23788V6.20693L26.4539 6.17597V6.23788L26.4845 6.20693L26.4539 6.17597L26.3926 6.20693C26.3926 6.20693 26.4232 6.23788 26.4539 6.23788V6.17597L26.3926 6.20693V6.23788L26.4539 6.17597H26.3926C26.3926 6.17597 26.3926 6.20693 26.3926 6.26884C26.3926 6.33075 26.3926 6.45457 26.3926 6.60935V6.67126H26.4539C26.4539 6.67126 27.0692 6.67126 27.6823 6.67126C27.9889 6.67126 28.2976 6.67126 28.5122 6.67126C28.6349 6.67126 28.7268 6.67126 28.7881 6.67126C28.8188 6.67126 28.8495 6.67126 28.8801 6.67126H28.9108H28.9414L28.9721 6.64031V6.60935C28.9721 6.5784 28.9414 6.54744 28.9414 6.54744L28.9108 6.51648C28.4816 6.42362 27.9582 6.54744 27.4984 6.39266C27.0999 6.26884 26.7298 6.11406 26.4845 6.11406L26.4539 6.17597Z" fill="black"/>
<path d="M26.0859 6.82802C26.0859 6.7042 26.2086 6.61133 26.3618 6.61133C26.5151 6.61133 26.6377 6.7042 26.6377 6.82802C26.6377 6.95184 26.5151 7.01376 26.3618 7.01376C26.2086 7.04471 26.0859 6.95184 26.0859 6.82802Z" fill="black"/>
<path d="M26.0867 6.82773H26.148C26.148 6.79677 26.1787 6.76582 26.2093 6.73486C26.24 6.7039 26.3013 6.67295 26.3626 6.67295C26.4239 6.67295 26.4852 6.7039 26.5159 6.73486C26.5465 6.76582 26.5772 6.79677 26.5772 6.82773C26.5772 6.85868 26.5465 6.88964 26.5159 6.92059C26.4852 6.95155 26.4239 6.98251 26.3626 6.98251C26.3013 6.98251 26.24 6.95155 26.2093 6.92059C26.1787 6.88964 26.148 6.85868 26.148 6.82773H26.0867H26.0254C26.0254 6.92059 26.0867 6.98251 26.148 7.01346C26.2093 7.04442 26.3013 7.07537 26.3933 7.07537C26.4852 7.07537 26.5772 7.04442 26.6385 7.01346C26.6998 6.98251 26.7611 6.88964 26.7611 6.82773C26.7611 6.73486 26.6998 6.67295 26.6385 6.64199C26.5772 6.61103 26.4852 6.58008 26.3933 6.58008C26.3013 6.58008 26.2093 6.61103 26.148 6.64199C26.0867 6.67295 26.0254 6.76582 26.0254 6.82773H26.0867Z" fill="black"/>
<path d="M26.2405 6.17533C26.0259 6.17533 25.6251 6.33011 25.2266 6.45393C24.7339 6.60871 24.1821 6.48489 23.7836 6.57776C23.661 6.60871 26.2098 6.60871 26.2098 6.60871C26.2098 6.11342 26.2405 6.17533 26.2405 6.17533Z" fill="black"/>
<path d="M26.2389 6.17617V6.11426C25.9936 6.11426 25.5929 6.26904 25.225 6.39286C24.7324 6.54764 24.2112 6.42382 23.8127 6.51669H23.782H23.7514C23.7514 6.51669 23.7207 6.54764 23.7207 6.5786V6.60955L23.7514 6.64051H23.782C23.8433 6.64051 23.9966 6.64051 24.2419 6.67146C24.9491 6.67146 26.2082 6.70242 26.2082 6.70242H26.2695V6.64051C26.2695 6.48573 26.2695 6.36191 26.2695 6.3C26.2695 6.23808 26.2695 6.23808 26.2695 6.20713L26.2389 6.17617L26.3002 6.20713V6.17617H26.2389V6.23808C26.2695 6.23808 26.3002 6.20713 26.3002 6.20713L26.2389 6.17617L26.2082 6.23808H26.2389V6.17617L26.1776 6.20713L26.2082 6.23808L26.2389 6.17617H26.3002V6.14521V6.11426H26.2695C26.2389 6.11426 26.2082 6.14521 26.2082 6.14521V6.17617V6.20713C26.2082 6.23808 26.2082 6.23808 26.2082 6.3C26.2082 6.36191 26.2082 6.48573 26.2082 6.64051H26.2695V6.5786C26.2695 6.5786 25.6542 6.5786 25.0411 6.5786C24.7345 6.5786 24.4258 6.5786 24.2112 6.5786C24.0886 6.5786 23.9966 6.5786 23.9353 6.5786C23.9046 6.5786 23.874 6.5786 23.874 6.5786L23.8433 6.64051L23.9046 6.60955H23.874L23.8433 6.67146H23.9046V6.64051L23.8433 6.67146H23.9046H23.782L23.8127 6.73338C23.8127 6.73338 23.8433 6.70242 23.8433 6.67146H23.782V6.73338H23.8127L23.782 6.67146V6.73338C24.1499 6.64051 24.7039 6.76433 25.225 6.60955C25.6236 6.48573 26.0243 6.33095 26.2082 6.33095H26.3002L26.2695 6.23808L26.2389 6.17617Z" fill="black"/>
<path d="M9.24671 8.12998C9.33868 8.47049 9.58393 8.6894 9.98465 8.6894C10.7226 8.6894 11.4277 8.12998 11.8591 7.82042C12.1963 7.57277 12.5357 7.32292 12.5357 6.79667L12.4744 7.01336C12.4744 7.01336 13.059 6.42299 14.4714 6.88954C14.8699 7.01336 16.5604 7.9752 16.9283 8.12998C17.2348 8.2538 18.3407 9.06087 20.0924 8.75131C20.0924 8.75131 22.7354 8.37984 22.1508 5.61814C21.7216 3.66349 21.8749 3.50871 22.0282 2.88739C21.9669 2.85643 20.399 2.51592 20.4603 4.68725C19.7837 4.74916 18.9231 5.27762 19.4771 6.61093C19.6917 6.27042 20.0005 5.89674 20.4297 5.89674C20.7056 5.89674 20.9837 6.26821 20.9837 6.54902C21.0143 7.23226 20.3377 7.54182 19.4771 7.38704C19.0479 7.32513 18.6472 6.82762 18.0648 6.39424C18.1567 6.33233 18.2487 5.99182 18.2487 5.83483C18.2487 5.49431 17.9421 5.33732 17.756 5.2135C17.7867 5.08967 17.8786 4.93489 17.8786 4.81107C17.8786 4.53247 17.4801 4.56343 17.3246 4.4396C17.3859 4.34673 17.3859 4.40865 17.3859 4.28482C17.3859 3.8824 17.4472 3.6635 16.648 3.6635C16.7093 3.26107 16.6173 3.01121 16.3721 2.88739L15.7568 2.79452C15.3889 2.73261 15.7568 2.60878 15.4196 2.26606C15.113 1.9565 14.6203 2.26606 14.6203 2.26606C14.6203 1.98746 14.4364 1.76855 14.097 1.76855C13.913 1.76855 13.6984 1.76855 13.5736 1.86142L13.3284 2.07811C13.0218 2.07811 12.9298 1.79951 12.5904 1.79951C12.2226 1.79951 12.0999 2.07811 11.9445 2.26385C11.6992 2.14003 11.6686 1.95429 11.3291 1.95429C11.1452 1.95429 11.0839 2.17098 10.9919 2.26385C10.7773 2.5115 10.808 2.76135 10.4686 2.85422L10.346 2.63753V2.60657C9.85546 2.85422 8.74745 5.36828 8.74745 5.89453C8.74745 6.39203 9.17664 6.17313 9.17664 6.70159C9.17664 7.01115 8.7168 7.23005 8.7168 7.50865C8.7168 7.84917 9.11533 8.00616 9.45474 8.00616" fill="white"/>
<path d="M9.24695 8.12993L9.18564 8.16088C9.2163 8.34662 9.30826 8.50139 9.46155 8.59426C9.58417 8.68713 9.76811 8.74904 9.98489 8.74904C10.7535 8.74904 11.4914 8.18963 11.9206 7.88007C12.0739 7.75624 12.2578 7.63242 12.4111 7.44668C12.5337 7.29191 12.6564 7.07522 12.6564 6.7944L12.5337 6.76345L12.4724 6.98014L12.595 7.04205C12.6257 7.01109 12.9016 6.76345 13.5476 6.76345C13.8235 6.76345 14.1322 6.7944 14.5614 6.94918C14.7454 7.01109 15.2687 7.2897 15.7899 7.57051C16.3132 7.84911 16.8344 8.12993 17.0183 8.22279C17.1409 8.28471 17.4168 8.43948 17.8176 8.62522C18.2161 8.78 18.7701 8.93478 19.4161 8.93478C19.6613 8.93478 19.9394 8.90382 20.2153 8.87287C20.2153 8.87287 20.7693 8.81095 21.3211 8.47044C21.8751 8.12993 22.4269 7.5086 22.4269 6.45389C22.4269 6.20624 22.3963 5.95638 22.335 5.67778C22.1204 4.68498 22.0591 4.18748 22.0591 3.81601C22.0591 3.47549 22.1204 3.28755 22.2123 2.97799V2.91608L22.151 2.88512H22.1204C22.0591 2.88512 21.9671 2.85417 21.8138 2.85417C21.5686 2.85417 21.2292 2.91608 20.9532 3.16372C20.6773 3.41137 20.4606 3.87792 20.4606 4.65403C20.4606 4.68498 20.4606 4.71594 20.4606 4.7469H20.5219V4.68498C20.246 4.71594 19.9372 4.80881 19.7226 4.99454C19.4774 5.18028 19.3241 5.49205 19.3241 5.89447C19.3241 6.14212 19.3854 6.39198 19.508 6.70153L19.5693 6.82536L19.6306 6.73249C19.7533 6.57771 19.8759 6.39198 20.0292 6.26815C20.1825 6.14433 20.3357 6.05146 20.5219 6.05146C20.6138 6.05146 20.7365 6.14433 20.8284 6.2372C20.9204 6.36102 20.9817 6.5158 21.0124 6.63962V6.70153C21.0124 6.94918 20.9204 7.13492 20.7365 7.26095C20.5525 7.38477 20.3073 7.44668 19.9985 7.44668C19.8759 7.44668 19.7533 7.44668 19.6 7.41573C19.4161 7.38477 19.2015 7.26095 18.9847 7.07522C18.7701 6.88948 18.5248 6.67279 18.2161 6.45389L18.1854 6.5158L18.2161 6.57771C18.2774 6.54676 18.3081 6.5158 18.3081 6.45389C18.4 6.29911 18.4307 6.08242 18.4307 5.95638C18.4307 5.77065 18.3387 5.61587 18.2467 5.523C18.1241 5.43013 18.0015 5.33727 17.9095 5.27536L17.8789 5.33727L17.9402 5.36822C17.9708 5.2444 18.0628 5.08962 18.0628 4.93484C18.0628 4.84198 18.0321 4.78006 17.9708 4.71815C17.9095 4.65624 17.7869 4.62528 17.6949 4.59433C17.603 4.56337 17.511 4.53242 17.4803 4.50146L17.4497 4.56337L17.511 4.59433C17.5416 4.56337 17.5416 4.56337 17.5723 4.53242L17.603 4.4705C17.603 4.43955 17.603 4.43955 17.603 4.40859C17.603 4.34668 17.603 4.31573 17.603 4.25381C17.603 4.1919 17.603 4.09903 17.5723 4.03712C17.5416 3.94425 17.4803 3.85139 17.3577 3.78947C17.2351 3.72756 17.0818 3.72756 16.8672 3.72756C16.8366 3.72756 16.8059 3.72756 16.7752 3.72756V3.78947H16.8366C16.8366 3.69661 16.8672 3.60374 16.8672 3.54183C16.8672 3.38705 16.8366 3.29418 16.7752 3.17036C16.7139 3.07749 16.622 2.98462 16.4993 2.95367L15.884 2.8608C15.7921 2.8608 15.7614 2.82984 15.7614 2.82984C15.7614 2.82984 15.7614 2.82984 15.7614 2.79889C15.7614 2.76793 15.7614 2.76793 15.7614 2.73698C15.7614 2.64411 15.7307 2.52028 15.5775 2.36551C15.4548 2.24168 15.3016 2.21073 15.1789 2.21073C14.903 2.21073 14.6884 2.36551 14.6884 2.36551L14.7191 2.42742H14.7804C14.7804 2.27264 14.7191 2.11786 14.6271 2.02499C14.5351 1.93213 14.3819 1.87021 14.1979 1.87021C14.014 1.87021 13.7994 1.87021 13.6439 1.96308L13.3987 2.17977L13.4293 2.24168V2.05595C13.3067 2.05595 13.2147 1.99404 13.1228 1.93213C13.0308 1.87021 12.8775 1.77734 12.6936 1.77734C12.5096 1.77734 12.3564 1.87021 12.2337 1.96308C12.1418 2.05595 12.0498 2.17977 11.9885 2.27264L12.0498 2.30359L12.0805 2.24168C11.9578 2.17977 11.8965 2.11786 11.8352 2.05595C11.7432 1.99404 11.6513 1.93213 11.4673 1.93213C11.3447 1.93213 11.2527 1.99404 11.1914 2.0869C11.1301 2.14882 11.0995 2.24168 11.0688 2.27264L11.1301 2.30359L11.0688 2.24168C10.9462 2.36551 10.9155 2.48933 10.8542 2.5822C10.7929 2.67506 10.7316 2.76793 10.5783 2.79889L10.609 2.8608L10.6703 2.82984L10.5477 2.61315V2.5822L10.517 2.48933L10.4557 2.52028C10.3024 2.5822 10.1491 2.79889 9.96518 3.0797C9.71993 3.51308 9.41118 4.10345 9.19659 4.63192C9.07396 4.91052 8.982 5.16038 8.92068 5.37707C8.85937 5.59376 8.82871 5.74854 8.79806 5.87457C8.79806 5.9984 8.82871 6.09126 8.89003 6.18413C8.95134 6.277 9.07396 6.33891 9.13528 6.40082C9.19659 6.46273 9.2579 6.52465 9.2579 6.71038C9.2579 6.8342 9.16593 6.95803 9.04331 7.08185C8.92068 7.20567 8.79806 7.3295 8.79806 7.51523C8.79806 7.70097 8.92068 7.85574 9.07396 7.94861C9.22725 8.04148 9.41118 8.07244 9.59731 8.07244V8.01052L9.56665 7.94861L9.35206 8.04148H9.3214V8.07244L9.24695 8.12993L9.27761 8.19184L9.4922 8.09897L9.46155 7.97515C9.30826 7.97515 9.12433 7.94419 9.0017 7.85132C8.87908 7.78941 8.78711 7.66559 8.78711 7.54177C8.78711 7.4489 8.87908 7.32508 9.0017 7.20125C9.12433 7.07743 9.24695 6.92265 9.24695 6.73691C9.24695 6.58213 9.2163 6.48927 9.15498 6.42736C9.09367 6.30353 8.97105 6.27257 8.90973 6.21066C8.84842 6.14875 8.81777 6.1178 8.78711 5.93206C8.78711 5.80824 8.84842 5.56059 8.97105 5.24882C9.12433 4.78449 9.40023 4.19411 9.64767 3.66565C9.7703 3.41801 9.92358 3.20131 10.0462 3.01337C10.1688 2.82763 10.2915 2.73476 10.3528 2.70381L10.3221 2.6419L10.2608 2.67285V2.70381L10.3834 2.9205L10.4141 2.98241L10.4754 2.95146C10.6593 2.88955 10.7513 2.76572 10.8126 2.67285C10.8739 2.54903 10.9352 2.45616 11.0272 2.33234C11.0885 2.27043 11.1192 2.20852 11.1498 2.14661C11.1805 2.08469 11.2418 2.05374 11.3031 2.05374C11.4564 2.05374 11.5177 2.08469 11.579 2.14661C11.6403 2.20852 11.7323 2.30138 11.8549 2.3633L11.9162 2.39425L11.9469 2.3633C12.0082 2.27043 12.1002 2.1466 12.1921 2.08469C12.2841 1.99182 12.3761 1.92991 12.56 1.92991C12.7133 1.92991 12.8053 1.99182 12.8972 2.05374C12.9892 2.11565 13.1118 2.20852 13.2958 2.20852H13.3264L13.6023 1.99182C13.6943 1.92991 13.9089 1.92991 14.0928 1.92991C14.2461 1.92991 14.3687 1.99182 14.43 2.05374C14.4914 2.11565 14.5527 2.23947 14.5527 2.3633V2.48712L14.6446 2.42521C14.6753 2.39425 14.8899 2.30138 15.0738 2.30138C15.1964 2.30138 15.2884 2.33234 15.3804 2.42521C15.503 2.54903 15.5337 2.6419 15.5337 2.70381V2.76572C15.5337 2.79668 15.5337 2.85859 15.595 2.88955C15.6256 2.9205 15.6869 2.95146 15.7789 2.95146L16.3942 3.04432V2.98241L16.3636 3.04432C16.4555 3.07528 16.5169 3.13719 16.5782 3.1991C16.6088 3.26101 16.6395 3.38484 16.6395 3.4777C16.6395 3.53962 16.6395 3.63249 16.6088 3.6944V3.78726H16.7008C16.7314 3.78726 16.7621 3.78726 16.7928 3.78726C17.0993 3.78726 17.2526 3.81822 17.2833 3.88013C17.3139 3.91109 17.3446 3.94204 17.3446 3.973C17.3446 4.00395 17.3446 4.06587 17.3446 4.15873C17.3446 4.18969 17.3446 4.2516 17.3446 4.31351C17.3446 4.34447 17.3446 4.37542 17.3446 4.37542V4.40638L17.3139 4.43734L17.2833 4.49925L17.3446 4.53021C17.4365 4.59212 17.5898 4.62307 17.6818 4.65403C17.7431 4.68498 17.7738 4.68498 17.8044 4.71594C17.8351 4.7469 17.8351 4.77785 17.8351 4.83976C17.8351 4.93263 17.7738 5.08741 17.7124 5.21123L17.6818 5.27315L17.7431 5.3041C17.8351 5.36601 17.9577 5.42792 18.0497 5.52079C18.1416 5.61366 18.2029 5.70652 18.2029 5.8613C18.2029 5.92322 18.1723 6.04704 18.1416 6.13991C18.111 6.20182 18.111 6.23278 18.0803 6.29469C18.0497 6.32564 18.0497 6.3566 18.0497 6.3566L17.9577 6.41851L18.0497 6.48042C18.3562 6.69711 18.6037 6.9138 18.8183 7.10175C19.0329 7.28748 19.2474 7.44226 19.4949 7.47322C19.6482 7.50418 19.7708 7.50418 19.8934 7.50418C20.2306 7.50418 20.5087 7.44227 20.7233 7.28749C20.9379 7.13271 21.0605 6.91601 21.0605 6.60424V6.54233C21.0605 6.38755 20.9686 6.20182 20.846 6.078C20.7233 5.92322 20.6007 5.83035 20.4168 5.83035C20.1715 5.83035 19.9876 5.92322 19.8321 6.078C19.6788 6.23278 19.5255 6.38756 19.4029 6.5755L19.4642 6.60646L19.5255 6.5755C19.4029 6.26594 19.3416 6.01608 19.3416 5.79939C19.3416 5.42792 19.4949 5.17807 19.7095 5.02329C19.9241 4.83755 20.2022 4.77564 20.4474 4.74469H20.5087V4.68277C20.5087 4.65181 20.5087 4.62086 20.5087 4.5899C20.5087 3.84475 20.6927 3.41137 20.9379 3.19468C21.1832 2.97799 21.4919 2.91608 21.7065 2.91608C21.7985 2.91608 21.8598 2.91608 21.9211 2.94703H21.9824H22.0131L22.0437 2.88512L21.9824 2.85417C21.8905 3.16373 21.8291 3.38263 21.8291 3.7541C21.8291 4.12557 21.8905 4.65403 22.105 5.64682C22.1664 5.92543 22.197 6.17529 22.197 6.39198C22.197 7.38478 21.6737 7.97515 21.1525 8.28471C20.9073 8.43948 20.6292 8.53235 20.4452 8.59426C20.3533 8.62522 20.2613 8.65617 20.2 8.65617C20.1387 8.65617 20.108 8.68713 20.108 8.68713C19.8321 8.74904 19.5847 8.74904 19.3394 8.74904C18.6934 8.74904 18.2029 8.59426 17.8022 8.43948C17.4037 8.2847 17.1256 8.09897 17.003 8.03706C16.819 7.97515 16.2957 7.69654 15.7745 7.41573C15.2534 7.13492 14.73 6.85631 14.5154 6.7944C14.1169 6.67058 13.7468 6.60867 13.4709 6.60867C12.7637 6.60867 12.4264 6.91822 12.4264 6.91822L12.4878 6.98014L12.5491 7.01109L12.6104 6.7944L12.5491 6.76345H12.4878C12.4878 7.01109 12.3958 7.19683 12.2732 7.35382C12.1505 7.5086 11.9973 7.63242 11.8133 7.75625C11.3841 8.0658 10.6768 8.62522 9.96956 8.62522C9.78563 8.62522 9.63234 8.56331 9.54038 8.5014C9.41775 8.40853 9.35644 8.28471 9.32578 8.12993H9.24695Z" fill="black"/>
<path d="M10.3857 5.99023C10.3857 5.99023 10.9397 6.20693 10.9397 6.29979C10.9397 6.45457 10.6025 6.60935 10.3551 6.82826H10.0792C10.1711 6.48774 10.0792 6.61156 10.0792 6.29979C10.0463 6.0831 10.2916 5.99023 10.3857 5.99023Z" fill="black"/>
<path d="M10.3868 5.98965L10.3562 6.05156C10.3562 6.05156 10.4788 6.11347 10.6321 6.17538C10.6934 6.20634 10.7547 6.23729 10.816 6.26825L10.8773 6.29921C10.8773 6.29921 10.8773 6.33016 10.8467 6.36112C10.7547 6.45399 10.5094 6.60876 10.3233 6.76354L10.354 6.82545V6.76354H10.0781V6.82545L10.1394 6.85641C10.17 6.73259 10.2007 6.67067 10.2007 6.60876C10.2007 6.54685 10.17 6.5159 10.17 6.48494C10.17 6.45398 10.1394 6.39207 10.1394 6.29921C10.1394 6.20634 10.17 6.14442 10.2313 6.11347C10.2927 6.08251 10.354 6.05156 10.3846 6.05156V5.98965L10.354 6.05156L10.3868 5.98965V5.92773C10.3255 5.92773 10.2335 5.95869 10.1416 6.0206C10.0496 6.08251 9.98828 6.17538 9.98828 6.33016C9.98828 6.42303 9.98828 6.5159 10.0189 6.54685C10.0189 6.57781 10.0496 6.60876 10.0496 6.63972C10.0496 6.67067 10.0496 6.73259 10.0189 6.82545L9.98828 6.91832H10.3562H10.3868L10.4175 6.88736C10.5401 6.7945 10.6627 6.70163 10.7853 6.60876C10.8467 6.57781 10.908 6.5159 10.9386 6.48494C10.9693 6.45398 10.9999 6.39207 10.9999 6.33016C10.9999 6.29921 10.9693 6.26825 10.9693 6.23729C10.908 6.17538 10.7853 6.08251 10.6627 6.05156C10.5401 5.98965 10.4481 5.95869 10.4481 5.95869V5.98965H10.3868Z" fill="black"/>
<path d="M12.3822 5.12133C12.5355 5.02846 12.5968 4.90463 12.6581 4.81177C12.6888 4.74986 12.7194 4.7189 12.7501 4.68794C12.7807 4.65699 12.8421 4.65699 12.9647 4.65699C13.1486 4.65699 13.2712 4.7189 13.3939 4.78081C13.5165 4.84272 13.6698 4.93559 13.8537 4.93559C14.007 4.93559 14.099 4.87368 14.2216 4.81177C14.3442 4.74986 14.4362 4.68794 14.5895 4.68794C14.7121 4.68794 14.8347 4.74985 14.9573 4.90463C15.08 5.02846 15.1413 5.21419 15.1413 5.40214C15.1413 5.43309 15.1413 5.46405 15.1413 5.49501V5.61883L15.2332 5.58788H15.2639C15.3252 5.58788 15.4172 5.55692 15.5398 5.55692C15.6624 5.55692 15.8157 5.58788 15.9383 5.68074C16.061 5.77361 16.1223 5.95935 16.1529 6.27111V6.33303V6.42589L16.2449 6.39494C16.3675 6.36398 16.4902 6.33303 16.5515 6.33303C16.6434 6.33303 16.7354 6.36398 16.7661 6.39494C16.8274 6.45685 16.8887 6.58067 16.9193 6.7045C16.95 6.82832 16.95 6.9831 16.9807 7.07597C17.0113 7.16883 17.0726 7.23075 17.1339 7.2617C17.2259 7.32361 17.3485 7.32361 17.4098 7.38552C17.4712 7.44744 17.5325 7.47839 17.5325 7.66413C17.5325 7.69508 17.5325 7.757 17.5325 7.78795L17.6551 7.81891C17.6551 7.757 17.6551 7.72604 17.6551 7.66413C17.6551 7.50935 17.6244 7.41648 17.5631 7.35457C17.4712 7.23074 17.3485 7.19979 17.2566 7.16883C17.2259 7.13788 17.1646 7.13788 17.1339 7.10692C17.1033 7.07597 17.1033 7.07597 17.0726 7.01406C17.042 6.89023 17.042 6.67354 16.9807 6.48559C16.95 6.39273 16.9193 6.29986 16.8274 6.23795C16.7661 6.17604 16.6434 6.14508 16.5208 6.14508C16.4288 6.14508 16.3062 6.17604 16.1529 6.20699L16.1836 6.26891H16.2449V6.20699C16.2449 5.86648 16.1529 5.64757 15.9997 5.52375C15.8464 5.39993 15.6624 5.36897 15.5092 5.36897C15.3252 5.36897 15.1719 5.43088 15.1719 5.43088L15.2026 5.4928H15.2639C15.2639 5.46184 15.2639 5.43088 15.2639 5.36897C15.2639 5.12133 15.1719 4.93559 15.0493 4.7786C14.9267 4.62382 14.7427 4.53096 14.5895 4.53096C14.4055 4.53096 14.2829 4.59287 14.1603 4.65478C14.0377 4.71669 13.9457 4.7786 13.8537 4.7786C13.7004 4.7786 13.5778 4.71669 13.4552 4.65478C13.3326 4.59287 13.1793 4.5 12.9647 4.5C12.8421 4.5 12.7501 4.53096 12.6888 4.56191C12.5968 4.62382 12.5355 4.71669 12.5048 4.80956C12.4742 4.90242 12.4129 4.96434 12.3516 4.99529L12.3822 5.12133Z" fill="black"/>
<path d="M1.29045 2.48357H2.12036C2.73567 2.32879 2.95027 1.98828 3.59624 1.98828C4.05608 1.98828 4.27286 2.29784 4.57942 2.29784C4.85533 2.29784 5.28671 1.98828 5.74655 1.98828C6.23705 1.98828 6.45383 2.26688 6.79105 2.42166C7.06696 2.54548 7.43702 2.54548 7.83555 2.54548C7.83555 2.82409 7.83555 3.00982 7.83555 3.22873C7.83555 3.47637 8.14211 3.3835 8.14211 3.75719C8.14211 4.15961 7.71293 4.0977 7.71293 4.25469L7.68227 5.80469C7.71293 5.99043 8.0808 6.02138 8.0808 6.29999C8.0808 6.73337 7.65162 6.57859 7.68227 6.92131C7.71293 7.16896 7.68227 7.69742 7.68227 7.69742C6.85236 7.69742 1.66051 7.69742 1.41526 7.69742C1.44592 7.138 1.41526 7.19992 1.41526 6.92131C1.44592 6.70462 0.924765 6.54984 0.924765 6.17616C0.924765 5.92851 1.23133 5.92851 1.23133 5.67866V4.1574C1.20067 3.97167 0.771484 3.84784 0.771484 3.56703C0.802141 3.22651 1.20067 3.25747 1.20067 3.03857C1.25979 2.95012 1.29045 2.57644 1.29045 2.48357Z" fill="white"/>
<path d="M1.28992 2.48341V2.54532H2.11983C2.42639 2.48341 2.64317 2.32863 2.85777 2.23576C3.07236 2.1429 3.2563 2.05003 3.56505 2.05003C3.77964 2.05003 3.93292 2.11194 4.0884 2.20481C4.24168 2.26672 4.39496 2.35959 4.5789 2.35959C4.73218 2.35959 4.91611 2.26672 5.1329 2.20481C5.34749 2.11194 5.56208 2.05003 5.77887 2.05003C5.99346 2.05003 6.1774 2.11194 6.33287 2.20481C6.48615 2.29768 6.63943 2.39054 6.79271 2.48341C7.06862 2.60723 7.40803 2.60723 7.74524 2.60723C7.7759 2.60723 7.80656 2.60723 7.86787 2.60723V2.54532H7.80656C7.80656 2.63819 7.80656 2.73106 7.80656 2.79297C7.80656 2.94775 7.80656 3.07157 7.80656 3.22635C7.80656 3.28826 7.83721 3.38113 7.86787 3.41208C7.92918 3.474 7.99049 3.50495 8.05181 3.53591C8.08246 3.56687 8.14378 3.62878 8.14378 3.7526C8.14378 3.84547 8.11312 3.90738 8.08246 3.93833C8.05181 4.00025 7.95984 4.0312 7.89853 4.06216C7.86787 4.09311 7.83721 4.09311 7.7759 4.12407C7.74524 4.15502 7.71459 4.18598 7.71459 4.24789L7.68174 5.80453C7.68174 5.86644 7.74305 5.92835 7.77371 5.95931C7.83502 6.02122 7.92699 6.05217 7.9883 6.11409C8.04962 6.176 8.08027 6.20696 8.08027 6.29982C8.08027 6.39269 8.04962 6.4546 8.01896 6.48556C7.9883 6.54747 7.89634 6.57843 7.83502 6.60938C7.80437 6.64034 7.74305 6.67129 7.7124 6.70225C7.68174 6.7332 7.65109 6.79512 7.65109 6.88798V6.91894C7.65109 7.01181 7.65109 7.10468 7.65109 7.2285C7.65109 7.44519 7.65109 7.69283 7.65109 7.69283H7.7124V7.63092C7.31387 7.63092 5.77668 7.63092 4.33365 7.63092C2.92127 7.63092 1.56802 7.63092 1.44539 7.63092V7.69283H1.5067C1.5067 7.53806 1.5067 7.44519 1.5067 7.35232C1.5067 7.2285 1.5067 7.16659 1.5067 7.10468C1.5067 7.07372 1.5067 7.01181 1.5067 6.91894C1.5067 6.82607 1.47605 6.76416 1.41474 6.7332C1.35342 6.64034 1.2308 6.57843 1.16949 6.48556C1.07752 6.39269 1.04686 6.29982 1.04686 6.20696C1.04686 6.14505 1.04686 6.11409 1.07752 6.08313C1.10817 6.05218 1.16949 5.99026 1.2308 5.95931C1.29211 5.8974 1.35342 5.83549 1.35342 5.71166V4.15945C1.35342 4.09754 1.29211 4.03562 1.26145 3.97371C1.20014 3.9118 1.10817 3.84989 1.01621 3.78798C0.954893 3.72607 0.89358 3.66415 0.89358 3.60224C0.89358 3.54033 0.924236 3.47842 0.954893 3.44746C1.01621 3.38555 1.07752 3.3546 1.13883 3.29268C1.16949 3.26173 1.20014 3.23077 1.2308 3.19982C1.26145 3.16886 1.29211 3.10695 1.29211 3.04504C1.29211 2.95217 1.29211 2.70452 1.29211 2.54753C1.29211 2.51658 1.29211 2.48562 1.29211 2.45467V2.39276H1.22861V2.54753L1.28992 2.48341H1.22861C1.22861 2.51437 1.22861 2.51436 1.22861 2.57628C1.22861 2.73106 1.22861 2.9787 1.22861 3.07378C1.22861 3.10474 1.22861 3.1357 1.19795 3.16665C1.1673 3.19761 1.07533 3.22856 0.983359 3.29047C0.891391 3.35239 0.830078 3.44525 0.830078 3.60003V3.63099C0.830078 3.72385 0.860734 3.78577 0.922047 3.84768C0.983359 3.94054 1.07533 4.00246 1.1673 4.06437C1.19795 4.09533 1.22861 4.12628 1.25927 4.15724L1.28992 4.21915V5.74041C1.28992 5.77136 1.25927 5.80232 1.25927 5.83328C1.22861 5.86423 1.1673 5.92614 1.10598 5.9571C1.04467 6.01901 0.983359 6.08092 0.983359 6.20474C0.983359 6.42143 1.13664 6.57622 1.25927 6.66908C1.32058 6.73099 1.38189 6.76195 1.41255 6.82386C1.4432 6.85482 1.47386 6.91673 1.47386 6.91673C1.47386 7.0096 1.47386 7.07151 1.47386 7.10246C1.47386 7.16437 1.47386 7.22629 1.47386 7.35011C1.47386 7.44298 1.47386 7.53585 1.47386 7.69062V7.75254H1.53517C1.6578 7.75254 3.00886 7.75254 4.45408 7.75254C5.8993 7.75254 7.40365 7.75254 7.83283 7.75254H7.80218V7.69062C7.80218 7.69062 7.80218 7.44298 7.80218 7.22629C7.80218 7.10246 7.80218 6.97864 7.80218 6.91673V6.88577C7.80218 6.82386 7.83283 6.79291 7.83283 6.76195C7.86349 6.73099 7.95546 6.70004 8.04743 6.63813C8.1394 6.57622 8.20071 6.45239 8.20071 6.29761C8.20071 6.20474 8.17005 6.14283 8.1394 6.08092C8.07808 5.98805 7.98611 5.9571 7.9248 5.89519C7.89415 5.86423 7.86349 5.86423 7.83283 5.83328L7.80218 5.77136L7.83283 4.21915C7.83283 4.21915 7.86349 4.18819 7.89415 4.18819C7.95546 4.15724 8.04743 4.12628 8.10874 4.06437C8.17005 4.00246 8.23136 3.87863 8.23136 3.75481C8.23136 3.66194 8.20071 3.56908 8.17005 3.50716C8.10874 3.4143 8.01677 3.38334 7.98611 3.32143L7.9248 3.25952C7.9248 3.22856 7.89415 3.22856 7.89415 3.19761C7.89415 3.04283 7.89415 2.919 7.89415 2.76422C7.89415 2.70231 7.89415 2.60945 7.89415 2.51658V2.45467H7.83283C7.80218 2.45467 7.77152 2.45467 7.71021 2.45467C7.37299 2.45467 7.03358 2.45466 6.81899 2.33084C6.66571 2.26893 6.54308 2.17606 6.35915 2.0832C6.20586 1.99033 5.99127 1.89746 5.74383 1.89746C5.49639 1.89746 5.25333 1.99033 5.06721 2.05224C4.85261 2.14511 4.69933 2.20702 4.57671 2.20702C4.42342 2.20702 4.3008 2.14511 4.14752 2.05224C3.99424 1.99033 3.8103 1.89746 3.56286 1.89746C3.22564 1.89746 3.00886 1.99033 2.79427 2.11415C2.57967 2.23797 2.39573 2.33084 2.08698 2.42371L2.11764 2.48562V2.42371H1.28992V2.57849V2.48341Z" fill="black"/>
<path d="M1.875 2.51367C1.875 2.51367 1.875 2.88514 1.875 3.44456C1.875 3.97302 1.875 4.685 1.875 5.30633C1.875 5.92766 1.875 6.48486 1.875 6.76347V6.82538H1.93631C1.93631 6.82538 3.16475 6.82538 4.42603 6.82538C5.07201 6.82538 5.71579 6.82538 6.20847 6.82538C6.69897 6.82538 7.06904 6.82538 7.13035 6.82538H7.19166V6.76347C7.19166 5.86354 7.19166 2.51367 7.19166 2.51367H7.03838C7.03838 2.51367 7.03838 3.35169 7.03838 4.31353C7.03838 5.27537 7.03838 6.33008 7.03838 6.79442H7.09969V6.73251C7.06904 6.73251 6.70116 6.73251 6.20847 6.73251C5.71579 6.73251 5.07201 6.73251 4.42603 6.73251C3.81072 6.73251 3.16694 6.73251 2.70491 6.73251C2.24287 6.73251 1.93631 6.73251 1.93631 6.73251V6.79442H1.99762C1.99762 6.51582 1.99762 5.9564 1.99762 5.33729C1.99762 4.09684 1.99762 2.54463 1.99762 2.54463L1.875 2.51367Z" fill="black"/>
<path d="M4.48633 2.29785V6.76434H4.60895V2.29785" fill="black"/>
<path d="M4.60938 6.20658C4.82397 6.20658 5.22469 6.36136 5.62322 6.48518C6.11372 6.63996 6.66772 6.51613 7.06625 6.609C7.18888 6.63996 4.64003 6.63996 4.64003 6.63996C4.64003 6.14466 4.60938 6.20658 4.60938 6.20658Z" fill="black"/>
<path d="M4.61014 6.20625V6.26816C4.79408 6.26816 5.22545 6.42293 5.59333 6.54676C6.11667 6.70154 6.66849 6.60867 7.03636 6.67058V6.60867L7.0057 6.67058V6.60867L6.97505 6.67058H7.0057L7.03636 6.60867H6.97505C6.97505 6.63963 7.0057 6.67058 7.0057 6.67058L7.03636 6.60867L6.97505 6.57771V6.60867H7.03636L7.0057 6.54676L6.97505 6.57771L7.03636 6.60867L7.0057 6.54676L7.03636 6.57771V6.5158L7.06702 6.54676V6.48485C7.06702 6.48485 7.0057 6.48485 6.94439 6.48485C6.66849 6.48485 6.11448 6.5158 5.59333 6.5158C5.06998 6.5158 4.6408 6.5158 4.6408 6.5158V6.57771H4.70211C4.70211 6.42293 4.70211 6.29911 4.70211 6.2372C4.70211 6.17529 4.70211 6.14433 4.70211 6.14433V6.11337V6.08242V6.05146C4.70211 6.05146 4.67145 6.02051 4.6408 6.02051H4.61014L4.57948 6.05146L4.54883 6.14433H4.6408L4.61014 6.20625L4.6408 6.26816V6.2372L4.61014 6.20625V6.26816H4.6408L4.61014 6.20625L4.54883 6.2372C4.54883 6.2372 4.57948 6.26816 4.61014 6.26816V6.20625L4.54883 6.2372V6.26816L4.61014 6.20625H4.54883C4.54883 6.20625 4.54883 6.2372 4.54883 6.29911C4.54883 6.36102 4.54883 6.48485 4.54883 6.63963V6.70154H4.61014C4.61014 6.70154 5.22545 6.70154 5.83858 6.70154C6.14514 6.70154 6.45389 6.70154 6.66849 6.70154C6.79111 6.70154 6.88308 6.70154 6.94439 6.70154C6.97505 6.70154 7.0057 6.70154 7.03636 6.70154H7.06702H7.09767L7.12833 6.67058V6.63963C7.12833 6.60867 7.09767 6.57771 7.09767 6.57771L7.06702 6.54676C6.63783 6.45389 6.11448 6.57771 5.65464 6.42294C5.25611 6.29911 4.88605 6.14433 4.6408 6.14433L4.61014 6.20625Z" fill="black"/>
<path d="M4.24023 6.85927C4.24023 6.73545 4.36286 6.64258 4.51614 6.64258C4.66942 6.64258 4.79205 6.73545 4.79205 6.85927C4.79205 6.98309 4.66942 7.07596 4.51614 7.07596C4.39352 7.07596 4.24023 6.98309 4.24023 6.85927Z" fill="black"/>
<path d="M4.23905 6.85898H4.30036C4.30036 6.82802 4.33102 6.79707 4.36167 6.76611C4.39233 6.73515 4.45364 6.7042 4.51495 6.7042C4.57627 6.7042 4.63758 6.73515 4.66823 6.76611C4.69889 6.79707 4.72955 6.82802 4.72955 6.85898C4.72955 6.88993 4.69889 6.92089 4.66823 6.95184C4.63758 6.9828 4.57627 7.01376 4.51495 7.01376C4.45364 7.01376 4.39233 6.9828 4.36167 6.95184C4.33102 6.92089 4.30036 6.88993 4.30036 6.85898H4.23905H4.17773C4.17773 6.95184 4.23905 7.01376 4.30036 7.04471C4.36167 7.07567 4.45364 7.10662 4.54561 7.10662C4.63758 7.10662 4.72955 7.07567 4.79086 7.04471C4.85217 7.01376 4.91348 6.92089 4.91348 6.85898C4.91348 6.76611 4.85217 6.7042 4.79086 6.67324C4.72955 6.64228 4.63758 6.61133 4.54561 6.61133C4.45364 6.61133 4.36167 6.64228 4.30036 6.67324C4.23905 6.7042 4.17773 6.79707 4.17773 6.85898H4.23905Z" fill="black"/>
<path d="M4.3928 6.20658C4.17821 6.20658 3.77749 6.36136 3.37896 6.48518C2.88846 6.63996 2.33446 6.51613 1.93593 6.609C1.8133 6.63996 4.36215 6.63996 4.36215 6.63996C4.3928 6.14466 4.3928 6.20658 4.3928 6.20658Z" fill="black"/>
<path d="M4.39319 6.20645V6.14453C4.14794 6.14453 3.74722 6.29931 3.37934 6.42314C2.88884 6.57792 2.3655 6.45409 1.96697 6.54696H1.93631H1.90566C1.90566 6.54696 1.875 6.57791 1.875 6.60887V6.63983L1.90566 6.67078H1.93631C1.99763 6.67078 2.15091 6.67078 2.39616 6.70174C3.10344 6.70174 4.36253 6.73269 4.36253 6.73269H4.42385V6.67078C4.42385 6.516 4.42385 6.39218 4.42385 6.33027C4.42385 6.26836 4.42385 6.26836 4.42385 6.2374L4.39319 6.20645L4.4545 6.2374V6.20645H4.39319V6.26836C4.42385 6.26836 4.4545 6.2374 4.4545 6.2374L4.39319 6.20645L4.36253 6.26836H4.39319V6.20645L4.33188 6.2374L4.36253 6.26836L4.39319 6.20645H4.33188V6.26836H4.39319V6.20645H4.4545V6.17549V6.14453H4.42385C4.39319 6.14453 4.36253 6.17549 4.36253 6.17549V6.20645V6.2374C4.36253 6.26836 4.36253 6.26836 4.36253 6.33027C4.36253 6.39218 4.36253 6.516 4.36253 6.67078H4.42385V6.60887C4.42385 6.60887 3.80853 6.60887 3.19541 6.60887C2.88884 6.60887 2.58009 6.60887 2.3655 6.60887C2.24287 6.60887 2.15091 6.60887 2.08959 6.60887C2.05894 6.60887 2.02828 6.60887 2.02828 6.60887L1.99762 6.67078L2.05894 6.63983H2.02828L1.99762 6.70174H2.05894V6.67078L1.99762 6.70174H2.05894H1.96697L1.99762 6.76365C1.99762 6.76365 2.02828 6.73269 2.02828 6.70174H1.96697V6.76365H1.99762L1.96697 6.70174V6.76365C2.33484 6.67078 2.88884 6.79461 3.41 6.63983C3.80853 6.516 4.20925 6.36122 4.39319 6.36122V6.20645Z" fill="black"/>
<path d="M5.375 22.2768C5.375 20.8507 6.57278 19.6699 8.04866 19.6699C9.52454 19.6699 10.7223 20.8485 10.7223 22.2768C10.7223 23.7052 9.52454 24.8838 8.04866 24.8838C6.57278 24.8838 5.375 23.7362 5.375 22.2768Z" fill="white"/>
<path d="M5.37577 22.2772H5.43708C5.43708 21.563 5.71298 20.9439 6.20567 20.4774C6.66552 20.013 7.34214 19.7322 8.04943 19.7322C8.75671 19.7322 9.43114 20.0108 9.89318 20.4774C10.353 20.9417 10.6618 21.563 10.6618 22.2772C10.6618 22.9914 10.3859 23.6106 9.89318 24.0771C9.43333 24.5414 8.75671 24.8223 8.04943 24.8223C7.34214 24.8223 6.66771 24.5436 6.20567 24.0771C5.74583 23.6128 5.43708 22.9914 5.43708 22.2772V22.2153H5.37577V22.2772H5.31445C5.31445 23.0224 5.62102 23.6725 6.1137 24.17C6.6042 24.6653 7.31149 24.9461 8.04943 24.9461C8.81802 24.9461 9.49246 24.6365 9.98515 24.17C10.4756 23.6725 10.7844 23.0224 10.7844 22.2772C10.7844 21.5321 10.4778 20.882 9.98515 20.3845C9.49465 19.887 8.78736 19.6084 8.04943 19.6084C7.28083 19.6084 6.60639 19.918 6.1137 20.3845C5.6232 20.8798 5.31445 21.5321 5.31445 22.2772V22.3391H5.37577V22.2772Z" fill="black"/>
<path d="M12.75 16.0415C12.75 14.6153 13.9478 13.4346 15.4237 13.4346C16.8995 13.4346 18.0973 14.6131 18.0973 16.0415C18.0973 17.4677 16.8995 18.6484 15.4237 18.6484C13.9478 18.6153 12.75 17.4677 12.75 16.0415Z" fill="white"/>
<path d="M12.7508 16.0419H12.8121C12.8121 15.3277 13.088 14.7086 13.5807 14.242C14.0405 13.7777 14.7171 13.4969 15.4244 13.4969C16.1317 13.4969 16.8061 13.7755 17.2682 14.242C17.7302 14.7086 18.0368 15.3277 18.0368 16.0419C18.0368 16.7561 17.7609 17.3752 17.2682 17.8417C16.8083 18.3061 16.1317 18.5869 15.4244 18.5869C14.7171 18.5869 14.0427 18.3083 13.5807 17.8417C13.1208 17.3774 12.8121 16.7561 12.8121 16.0419H12.7508H12.6895C12.6895 16.787 12.996 17.4371 13.4887 17.9346C13.9792 18.4299 14.6865 18.7107 15.4244 18.7107C16.193 18.7107 16.8675 18.4012 17.3601 17.9346C17.8506 17.4371 18.1594 16.787 18.1594 16.0419C18.1594 15.2967 17.8528 14.6467 17.3601 14.1492C16.8696 13.6539 16.1624 13.373 15.4244 13.373C14.6558 13.373 13.9814 13.6826 13.4887 14.1492C12.9982 14.6467 12.6895 15.2967 12.6895 16.0419H12.7508Z" fill="black"/>
<path d="M19.6953 22.2768C19.6953 20.8507 20.8931 19.6699 22.369 19.6699C23.8427 19.6699 25.0426 20.8485 25.0426 22.2768C25.0426 23.7052 23.8448 24.8838 22.369 24.8838C20.8931 24.8838 19.6953 23.7362 19.6953 22.2768Z" fill="white"/>
<path d="M19.6941 22.2772H19.7554C19.7554 21.563 20.0313 20.9439 20.524 20.4774C20.9839 20.013 21.6605 19.7322 22.3678 19.7322C23.0751 19.7322 23.7495 20.0108 24.2115 20.4774C24.6714 20.9417 24.9801 21.563 24.9801 22.2772C24.9801 22.9914 24.7042 23.6106 24.2115 24.0771C23.7517 24.5414 23.0751 24.8223 22.3678 24.8223C21.6605 24.8223 20.9861 24.5436 20.524 24.0771C20.0642 23.6128 19.7554 22.9914 19.7554 22.2772H19.6941H19.6328C19.6328 23.0224 19.9394 23.6725 20.4321 24.17C20.9248 24.6653 21.6298 24.9461 22.3678 24.9461C23.1364 24.9461 23.8108 24.6365 24.3035 24.17C24.7962 23.6725 25.1028 23.0224 25.1028 22.2772C25.1028 21.5321 24.7962 20.882 24.3035 20.3845C23.8108 19.887 23.1057 19.6084 22.3678 19.6084C21.5992 19.6084 20.9248 19.918 20.4321 20.3845C19.9394 20.8798 19.6328 21.5321 19.6328 22.2772H19.6941Z" fill="black"/>
<path d="M18.1576 6.2687C17.8203 5.89723 17.4809 5.4926 17.2357 5.15208C17.1131 4.9973 16.9904 4.84252 16.9291 4.74965C16.8985 4.68774 16.8371 4.65679 16.8371 4.62583C16.8065 4.59488 16.7758 4.56392 16.7452 4.56392C16.6839 4.53296 16.5612 4.40914 16.408 4.25436C15.9481 3.7259 15.0569 2.79723 13.4277 2.70215C13.3971 2.70215 13.3358 2.70215 13.3051 2.70215C12.9679 2.70215 12.3219 2.76406 11.7679 2.85693C11.492 2.91884 11.2446 2.98075 11.03 3.07362C10.938 3.13553 10.846 3.16649 10.7847 3.2284C10.7234 3.29031 10.6621 3.35222 10.6621 3.44509L10.7847 3.47604C10.7847 3.44509 10.8154 3.38318 10.8767 3.35222C11.0606 3.19744 11.5227 3.04266 11.9825 2.94979C12.473 2.85693 12.9657 2.82597 13.2723 2.82597C13.3336 2.82597 13.3642 2.82597 13.3949 2.82597C14.47 2.88788 15.1773 3.32348 15.6985 3.7259C15.9437 3.94259 16.1583 4.15928 16.3138 4.31627C16.4671 4.50201 16.5897 4.62583 16.6817 4.65679C16.6817 4.65679 16.7123 4.68774 16.743 4.7187C16.9269 4.93539 17.4809 5.68054 18.0634 6.36378L18.1576 6.2687Z" fill="black"/>
<path d="M12.6284 6.92117C12.6284 6.85926 12.6284 6.79735 12.6284 6.73544L12.5978 6.67353C12.5671 6.64257 12.5364 6.64257 12.5364 6.64257C12.4445 6.61161 12.3218 6.61161 12.2299 6.61161C12.1686 6.61161 12.1073 6.61161 12.0766 6.61161C12.0153 6.61161 11.9846 6.61161 11.9846 6.61161V6.64257L12.0153 6.61161H11.9846V6.64257H12.0459L12.0153 6.61161L11.9846 6.64257H12.0459H12.0153L12.0459 6.67353C12.0459 6.67353 12.0459 6.67353 12.0459 6.64257H12.0153L12.0459 6.67353C12.0459 6.67353 12.1073 6.64257 12.1379 6.61161L12.1992 6.58066H12.2299C12.2299 6.58066 12.2605 6.58066 12.2605 6.51875L12.2299 6.45684L12.1992 6.42588H12.1686V6.48779L12.1992 6.5497C12.3218 6.48779 12.5671 6.39492 12.7532 6.30206C12.8452 6.24015 12.9372 6.17823 12.9985 6.11632C13.0598 6.05441 13.1211 5.96154 13.1211 5.86867C13.1211 5.80676 13.0904 5.74485 13.0291 5.68294C12.7532 5.43529 12.5999 5.15448 12.4445 4.96875C12.2299 4.7211 11.954 4.59727 11.5839 4.59727C11.4 4.59727 11.1854 4.75205 10.9686 4.90683C10.7847 5.06161 10.6007 5.24735 10.4781 5.30926L10.5087 5.37117L10.5701 5.43308C10.6314 5.37117 10.7847 5.21639 10.9379 5.06161C11.0606 4.90683 11.1832 4.7211 11.1832 4.5022C11.1832 4.13073 11.0299 3.75704 10.8766 3.44749C10.7233 3.10697 10.5394 2.82616 10.4781 2.5166L10.3555 2.54756C10.4474 2.85712 10.6314 3.16888 10.7847 3.47844C10.9379 3.788 11.0912 4.13073 11.0912 4.47124C11.0912 4.59506 10.9992 4.7808 10.8766 4.93558C10.754 5.09036 10.6007 5.21418 10.5087 5.30705L10.6007 5.39992C10.7233 5.30705 10.9073 5.15227 11.0912 4.99749C11.2752 4.84271 11.4897 4.71889 11.6146 4.71889C11.9824 4.71889 12.1686 4.84271 12.3832 5.02845C12.5364 5.18323 12.6897 5.46183 12.9678 5.74264C12.9985 5.7736 12.9985 5.80455 12.9985 5.80455C12.9985 5.83551 12.9678 5.89742 12.9065 5.92838C12.7532 6.08315 12.3525 6.26889 12.1379 6.36176L12.1686 6.48558V6.42367L12.1379 6.48558H12.1686V6.42367L12.1073 6.45463L12.1379 6.48558L12.1686 6.42367H12.1073L12.1379 6.45463L12.1992 6.42367L12.1686 6.39271C12.1686 6.39271 12.1686 6.39271 12.1379 6.42367H12.1992L12.1686 6.39271C12.1686 6.39271 12.1073 6.42367 12.0766 6.45463L12.0153 6.48558L11.9846 6.51654C11.9846 6.51654 11.954 6.54749 11.954 6.57845L11.9846 6.64036L12.0153 6.67132C12.0459 6.67132 12.1073 6.67132 12.1686 6.70227C12.2605 6.70227 12.3832 6.70227 12.4751 6.70227C12.5058 6.70227 12.5671 6.70227 12.5671 6.70227L12.5978 6.67132H12.5364V6.70227L12.5671 6.67132H12.5058C12.5058 6.73323 12.5058 6.76418 12.5058 6.82609L12.6284 6.92117Z" fill="black"/>
<path d="M9.43359 8.06813C10.0183 8.06813 10.3555 8.03717 10.6314 7.88239C10.7847 7.78952 10.9993 7.6657 11.1854 7.54188C11.3693 7.3871 11.5533 7.23232 11.6146 7.07754L11.4919 7.01562C11.4306 7.13945 11.2773 7.29423 11.0934 7.41805C10.9095 7.54188 10.6949 7.6657 10.5701 7.75857C10.3248 7.88239 10.0161 7.9443 9.43359 7.9443V8.06813Z" fill="black"/>
<path d="M0.122625 0.126036V0.249859H30.8161V0.126036H30.6934C30.6934 0.126036 30.6934 0.373682 30.6934 0.778319C30.6934 3.6948 30.6934 15.3917 30.6934 15.6084C30.6015 21.8438 27.0979 26.622 23.3819 29.8171C21.5382 31.4312 19.6025 32.6407 18.0675 33.4478C17.2989 33.8502 16.5916 34.162 16.0398 34.3787C15.4858 34.5954 15.0566 34.6882 14.8726 34.6882H14.842C14.658 34.6882 14.2573 34.5644 13.7362 34.3787C11.9231 33.6645 8.54432 31.7098 5.62542 28.5767C2.70651 25.4435 0.275906 21.0986 0.275906 15.6062V15.5443C0.275906 15.3276 0.275906 0.123823 0.275906 0.123823V0H0.122625V0.278601V0.126036H0C0 0.126036 0 0.373682 0 0.778319C0 3.6948 0 15.3607 0 15.5465V15.6084C0 21.9985 3.25613 26.8078 6.72904 30.067C8.45017 31.6811 10.2633 32.8906 11.737 33.7286C12.4749 34.131 13.1187 34.4428 13.6727 34.6595C14.196 34.8762 14.6252 34.969 14.8705 35H14.9011C15.177 35 15.6084 34.8762 16.1602 34.6904C18.1266 33.9453 21.7834 31.9907 24.9782 28.7956C28.1731 25.6005 30.908 21.2247 31 15.6725C31 15.5487 31 11.6704 31 7.82298C31 5.8993 31 3.97561 31 2.54943C31 1.83524 31 1.24708 31 0.811485C31 0.409059 31 0.159202 31 0.159202V0.0353789H0.122625V0.31398V0.126036Z" fill="black"/>
</svg>
